<?xml version="1.0" encoding="UTF-8"?>
<svg width="730px" height="550px" viewBox="0 0 730 550" version="1.1" xmlns="http://www.w3.org/2000/svg" xmlns:xlink="http://www.w3.org/1999/xlink">
    <title>Group</title>
    <g id="Page-1" stroke="none" stroke-width="1" fill="none" fill-rule="evenodd">
        <g id="Group" transform="translate(0.215591, 0.488861)">
            <path d="M89.298302,45.7037352 C-73.2450171,201.793299 32.4845063,413.576071 49.2974719,449.584289 C100.661891,465.504935 153.516277,474.714505 207.60746,478.370941 C199.584882,458.308272 193.222434,438.245602 189.292076,418.191232 C250.393158,479.661692 325.161258,496.333547 406.702689,481.500286 C408.566185,500.558578 402.423704,523.148795 393.392597,549.02607 C444.92303,541.140453 497.441239,529.814217 551.698435,512.395304 C574.599927,494.536456 590.786193,472.950617 601.419325,448.285237 C763.887939,390.612324 777.783226,151.9645 609.26759,84.5673763 C541.604845,69.1364689 463.404426,60.1468654 371.217412,59.706931 C325.44348,-25.7067526 203.540141,-9.42087826 89.298302,45.7037352 L89.298302,45.7037352 Z" id="Path" fill="#D4D1CC" fill-rule="nonzero"></path>
            <path d="M566.386434,274.029702 C566.386434,377.235828 474.31563,461.416865 361.430946,461.416865 C274.564649,461.416865 200.037267,411.563164 170.287739,341.559636 L176.629436,347.905483 C178.310317,347.668914 179.991199,347.411594 181.66793,347.125221 C181.825642,347.10032 181.987505,347.075418 182.141067,347.042215 C183.680837,346.789045 185.216458,346.515124 186.756228,346.224601 C186.955444,346.183098 187.154659,346.149895 187.358025,346.112542 C188.881194,345.822019 190.404364,345.510745 191.923382,345.18702 C192.101846,345.145517 192.284461,345.112314 192.462925,345.074961 C194.06495,344.726334 195.662825,344.369406 197.25655,343.987576 C197.397661,343.954373 197.538772,343.91287 197.684033,343.883818 C199.232104,343.510289 200.771875,343.128459 202.307495,342.725877 L203.029651,342.530812 C204.461513,342.148982 205.885075,341.758852 207.308636,341.347969 C207.590858,341.264963 207.86893,341.194407 208.151152,341.1031 C209.568521,340.694767 210.981109,340.270022 212.388634,339.828951 L213.135692,339.600683 C214.596607,339.139997 216.057521,338.658559 217.514285,338.172971 L218.510363,337.832644 C219.867519,337.371958 221.220525,336.898821 222.573531,336.404933 C222.959511,336.267972 223.345491,336.131011 223.727321,335.981599 C224.947517,335.537515 226.167712,335.072678 227.383757,334.611992 C227.815391,334.441829 228.247025,334.271666 228.674508,334.109803 C229.878102,333.632516 231.077546,333.155228 232.27284,332.657189 L233.609244,332.105196 C234.804538,331.611308 235.995681,331.100818 237.182674,330.582027 L238.92581,329.810067 C240.054699,329.299577 241.179437,328.797387 242.300024,328.270296 L243.860546,327.539839 C245.458443,326.788009 247.046761,326.015986 248.625119,325.223958 C249.608746,324.73837 250.592373,324.23618 251.5677,323.72569 C252.327209,323.33556 253.086718,322.941279 253.842078,322.542848 L256.153808,321.301901 L258.751912,319.865888 L260.77312,318.724549 C261.644688,318.22236 262.520407,317.720171 263.387824,317.209681 C264.159785,316.757295 264.927595,316.300759 265.691255,315.831773 C266.737137,315.209224 267.774718,314.565924 268.812299,313.918473 L270.011743,313.171415 C271.153082,312.449258 272.290271,311.718801 273.42331,310.975893 C273.693081,310.805729 273.958702,310.627266 274.232623,310.448802 C275.403015,309.676841 276.569256,308.89243 277.731347,308.099718 L278.299941,307.709587 C282.784956,304.617917 287.168616,301.381732 291.44402,298.006128 L291.738693,297.769559 C297.417666,293.266077 302.894536,288.513455 308.153227,283.525645 L308.31094,283.380383 C309.46888,282.276397 310.61852,281.15996 311.75986,280.031071 C313.444891,308.709815 338.396644,331.603007 368.76457,331.603007 C400.207431,331.603007 425.856438,307.049686 425.856438,276.94323 C425.856438,246.845075 400.207431,222.291753 368.76457,222.291753 C363.535161,222.291753 358.475915,222.972407 353.657388,224.242406 L353.661538,224.229955 C353.906408,223.78172 354.142976,223.329334 354.383695,222.876949 C355.026995,221.660904 355.661995,220.436558 356.284544,219.203912 L356.977648,217.821853 C357.587746,216.597508 358.185392,215.369012 358.774738,214.132215 L359.426339,212.754307 C360.032287,211.459406 360.625783,210.152053 361.210979,208.8364 L361.73392,207.649407 C362.344018,206.250748 362.945815,204.847938 363.52686,203.432678 L363.987546,202.30794 C364.581043,200.855326 365.162088,199.394412 365.722382,197.921046 L366.108362,196.895916 C366.643754,195.468204 367.170845,194.032192 367.689636,192.587879 L368.054865,191.541997 C368.565355,190.089383 369.050943,188.628469 369.52823,187.159254 C369.648589,186.810627 369.764798,186.457849 369.876857,186.109222 C370.990001,182.611467 372.026447,179.089765 372.98545,175.546645 C373.051856,175.310077 373.10581,175.073508 373.172215,174.83279 C373.6246,173.122856 374.056234,171.404621 374.467116,169.678086 L374.562574,169.283805 C374.977606,167.544819 375.363587,165.793382 375.737116,164.033645 L375.857475,163.4609 C376.231004,161.67626 376.587932,159.88332 376.919958,158.082079 L377.015416,157.530086 C377.705829,153.693154 378.306407,149.840599 378.816657,145.975582 L378.874761,145.535647 C379.11133,143.717805 379.318846,141.891662 379.505611,140.057218 C379.530513,139.882905 379.547114,139.704441 379.563715,139.530127 C379.775527,137.46329 379.956777,135.393436 380.107408,133.321241 C380.252669,131.399641 380.373029,129.47389 380.472636,127.535689 C380.472636,127.398728 380.480937,127.261767 380.489238,127.124806 C380.584695,125.149252 380.659401,123.165397 380.700904,121.173241 C380.709205,121.069483 380.709205,120.965724 380.709205,120.861966 C380.759009,118.844909 380.77561,116.8154 380.767309,114.77759 L380.767309,114.673832 C380.759009,112.60282 380.725806,110.523507 380.663551,108.435894 C380.663551,108.357038 380.663551,108.278182 380.655251,108.199326 C380.597146,106.165666 380.509989,104.119556 380.39793,102.065146 L380.373029,101.575407 C380.25542,99.5275346 380.111531,97.4812559 379.941395,95.4370769 L379.916493,95.1133515 C379.740476,92.9790877 379.538478,90.8470462 379.310545,88.7177011 L377.256135,87.1986822 C482.798893,94.6277635 566.386434,175.687756 566.386434,274.029702 Z" id="Path" fill="#1D1D1D" fill-rule="nonzero"></path>
            <path d="M485.384546,91.5233206 L618.111932,109.091645 C761.256633,172.122628 747.265888,393.505101 584.925935,433.11165 C576.795449,459.466212 562.157253,484.513422 541.007198,508.26158 C503.272445,519.973797 465.529392,529.08791 427.79879,535.587319 C436.975152,514.934149 443.848051,493.332812 448.293093,471.174278 C535.595175,434.630669 583.299008,367.611225 592.591585,297.499788 C598.476745,312.698278 609.516609,323.140495 622.56938,323.746442 C642.914272,324.688566 660.627858,301.35544 661.997466,271.817579 C663.367073,242.271417 647.894662,217.402671 627.54562,216.460547 C612.72066,215.771593 599.286058,227.969398 592.566683,246.073114 C584.527504,186.225431 548.56909,128.996603 485.384546,91.5233206 L485.384546,91.5233206 Z M212.587849,15.7923447 C173.583097,22.7773412 134.578345,35.2075639 95.5694427,53.0954636 C-9.82390436,164.311716 9.209485,342.651171 58.2663237,431.231553 C92.3736926,440.935012 129.934132,447.409519 168.12957,451.667752 C149.797586,406.387709 138.60001,359.671653 133.893542,311.660696 C144.281804,312.85184 154.674218,312.681676 165.06248,311.150206 C332.503183,282.396756 413.413764,37.4694909 263.172008,15.2818547 C249.504988,13.534568 233.069702,13.4515615 212.587849,15.7923447 Z M143.601151,174.70828 C88.7131062,166.876617 122.011162,82.8989458 181.9294,82.2182925 C243.885448,90.5687459 197.13204,174.027627 143.601151,174.70828 L143.601151,174.70828 Z" id="Shape" fill="#1D1D1D" fill-rule="nonzero"></path>
            <text id="EVENTS" font-family="HelveticaNeue-Bold, Helvetica Neue" font-size="20.22449" font-weight="bold" letter-spacing="1.01247167" fill="#1D1D1D">
                <tspan x="326.784409" y="285.511139">EVENTS</tspan>
            </text>
        </g>
    </g>
</svg>