<svg id="coupon" enable-background="new 0 0 508.495 508.495" height="512" viewBox="0 0 508.495 508.495" width="512" xmlns="http://www.w3.org/2000/svg"><path d="m492.495 215.812c8.836 0 16-7.163 16-16v-81.104c0-8.837-7.164-16-16-16h-476.495c-8.836 0-16 7.163-16 16v81.104c0 8.837 7.164 16 16 16 21.193 0 38.435 17.242 38.435 38.436s-17.242 38.434-38.435 38.434c-8.836 0-16 7.163-16 16v81.105c0 8.837 7.164 16 16 16h476.495c8.836 0 16-7.163 16-16v-81.105c0-8.837-7.164-16-16-16-21.193 0-38.435-17.241-38.435-38.435s17.242-38.435 38.435-38.435zm-460.495 107.037c31.156-7.265 54.435-35.266 54.435-68.602s-23.279-61.337-54.435-68.602v-50.938h119.938v239.08h-119.938zm444.495 0v50.938h-292.557v-239.08h292.557v50.938c-31.155 7.265-54.435 35.267-54.435 68.603s23.28 61.336 54.435 68.601z"/></svg>